<?xml version="1.0" encoding="UTF-8" standalone="no"?>
<!-- Created with Inkscape (http://www.inkscape.org/) -->

<svg
   width="210mm"
   height="297mm"
   viewBox="0 0 210 297"
   version="1.1"
   id="svg1"
   inkscape:version="1.4 (86a8ad7, 2024-10-11)"
   sodipodi:docname="mythras-icon.svg"
   xmlns:inkscape="http://www.inkscape.org/namespaces/inkscape"
   xmlns:sodipodi="http://sodipodi.sourceforge.net/DTD/sodipodi-0.dtd"
   xmlns="http://www.w3.org/2000/svg"
   xmlns:svg="http://www.w3.org/2000/svg">
  <sodipodi:namedview
     id="namedview1"
     pagecolor="#ffffff"
     bordercolor="#111111"
     borderopacity="1"
     inkscape:showpageshadow="0"
     inkscape:pageopacity="0"
     inkscape:pagecheckerboard="1"
     inkscape:deskcolor="#d1d1d1"
     inkscape:document-units="mm"
     showguides="false"
     inkscape:zoom="0.96"
     inkscape:cx="396.35417"
     inkscape:cy="477.60417"
     inkscape:window-width="1920"
     inkscape:window-height="1017"
     inkscape:window-x="1912"
     inkscape:window-y="-8"
     inkscape:window-maximized="1"
     inkscape:current-layer="layer1">
    <sodipodi:guide
       position="165.64019,145.96702"
       orientation="0,-1"
       id="guide24"
       inkscape:locked="false" />
  </sodipodi:namedview>
  <defs
     id="defs1" />
  <g
     inkscape:label="Réteg 1"
     inkscape:groupmode="layer"
     id="layer1">
    <g
       id="g9"
       transform="matrix(0.98500606,0,0,0.77566335,4.0535973,2.5693766)" />
    <g
       id="g25">
      <circle
         style="fill:#000000;stroke-width:1"
         id="path10"
         cx="99.194534"
         cy="127.51479"
         r="107.32085" />
      <g
         id="g24"
         transform="matrix(0.98500605,0,0,0.77566335,-6.9867722,110.33196)">
        <g
           id="g23">
          <path
             style="fill:#ffffff;stroke:#000000;stroke-width:0.302696px;stroke-linecap:butt;stroke-linejoin:miter;stroke-opacity:1"
             d="M 72.270914,-71.178346 C 60.32498,6.1080405 59.339508,45.956978 43.451205,74.50229 84.435391,42.838546 128.67358,37.001226 178.59605,76.278884 149.55901,31.616951 163.89611,-22.973428 143.06107,-73.310257 Z"
             id="path23"
             sodipodi:nodetypes="ccccc" />
        </g>
        <path
           id="path8"
           style="fill:#ffe6d5;stroke:#000000;stroke-width:0.264583px;stroke-linecap:butt;stroke-linejoin:miter;stroke-opacity:1"
           d="m 141.6359,-25.486183 c 18.91367,-18.971005 5.7616,34.2815803 -7.28835,34.9840503 z" />
        <path
           id="path9"
           style="fill:#ffe6d5;stroke:#000000;stroke-width:0.264583px;stroke-linecap:butt;stroke-linejoin:miter;stroke-opacity:1"
           d="m 74.096957,-24.392933 c -18.91367,-18.971003 -5.7616,34.2815803 7.28835,34.98405 z" />
        <path
           style="fill:#ffffff;stroke:#000000;stroke-width:0.264583px;stroke-linecap:butt;stroke-linejoin:miter;stroke-opacity:1"
           d="m 64.51779,-48.863476 c 26.48098,6.347376 61.63586,2.571698 88.11684,0.40081 7.80061,-57.719094 -81.722548,-83.591734 -88.11684,-0.40081 z"
           id="path6"
           sodipodi:nodetypes="ccc" />
        <path
           style="fill:#ffe6d5;stroke:#000000;stroke-width:0.250511px;stroke-linecap:butt;stroke-linejoin:miter;stroke-opacity:1"
           d="m 69.072765,-51.625274 c 17.814331,-14.217796 29.009774,-9.657293 38.732995,-1.273902 15.23901,-20.631156 27.23593,-5.391967 40.35851,1.273902 l -20.21558,99.255875 -41.252124,2.131912 z"
           id="path1"
           sodipodi:nodetypes="cccccc" />
        <path
           style="fill:#00ffff;stroke:#000000;stroke-width:0.264583px;stroke-linecap:butt;stroke-linejoin:miter;stroke-opacity:1"
           d="m 80.376187,-30.22361 18.949691,4.008587 -6.195092,8.3816 z"
           id="path2" />
        <path
           style="fill:#00ffff;stroke:#000000;stroke-width:0.264583px;stroke-linecap:butt;stroke-linejoin:miter;stroke-opacity:1"
           d="m 131.53378,-30.112112 -18.94971,4.008589 6.19511,8.3816 z"
           id="path2-8" />
        <path
           style="fill:#ffccaa;stroke:#000000;stroke-width:0.264583px;stroke-linecap:butt;stroke-linejoin:miter;stroke-opacity:1"
           d="M 105.88539,-25.486183 99.690296,13.142037 112.4449,6.9469473 Z"
           id="path3" />
        <path
           style="fill:#d35f5f;stroke:#000000;stroke-width:0.264583px;stroke-linecap:butt;stroke-linejoin:miter;stroke-opacity:1"
           d="m 87.944332,28.246912 c 5.859158,-0.81545 15.051478,-6.17934 35.348468,-0.36442 -13.79531,-6.41912 -25.439248,-5.84626 -35.348468,0.36442 z"
           id="path4"
           sodipodi:nodetypes="ccc" />
        <path
           style="fill:#ffffff;stroke:#000000;stroke-width:0.264583px;stroke-linecap:butt;stroke-linejoin:miter;stroke-opacity:1"
           d="m 75.274345,-36.054283 c 7.878681,-3.694269 30.570225,7.40496 28.424535,8.74601 l -0.36441,-9.839263 c 1.07847,10.330073 -18.169365,-8.04889 -28.060125,1.093253 z"
           id="path7"
           sodipodi:nodetypes="cccc" />
        <path
           style="fill:#ffffff;stroke:#000000;stroke-width:0.264583px;stroke-linecap:butt;stroke-linejoin:miter;stroke-opacity:1"
           d="m 139.79837,-36.074857 c -7.87868,-3.69427 -30.57021,7.404964 -28.42454,8.746014 l 0.36442,-9.839264 c -1.07847,10.330074 18.16936,-8.04889 28.06012,1.09325 z"
           id="path7-1"
           sodipodi:nodetypes="cccc" />
        <g
           id="g20">
          <path
             style="fill:#ffffff;stroke:#000000;stroke-width:0.23178px;stroke-linecap:butt;stroke-linejoin:miter;stroke-opacity:1"
             d="m 107.78868,-51.137828 27.85605,-46.18509 c 39.2685,35.267384 16.352,115.566197 14.06324,180.927391 2.30181,-83.1022066 7.56396,-173.150641 -41.91929,-134.742301 z"
             id="path5-5"
             sodipodi:nodetypes="cccc" />
          <path
             style="fill:#ffffff;stroke:#000000;stroke-width:0.23178px;stroke-linecap:butt;stroke-linejoin:miter;stroke-opacity:1"
             d="M 107.94431,-51.137828 80.088184,-97.322918 C 40.819576,-62.055534 63.736124,18.243279 66.024892,83.604473 63.723074,0.5022664 58.460904,-89.546168 107.94431,-51.137828 Z"
             id="path19"
             sodipodi:nodetypes="cccc" />
        </g>
      </g>
      <g
         id="g17"
         transform="matrix(0.99980601,0,0,1.1771168,-0.39381281,-39.713159)">
        <g
           id="g14">
          <path
             style="fill:#00ffff;stroke:#000000;stroke-width:0.264583px;stroke-linecap:butt;stroke-linejoin:miter;stroke-opacity:1"
             d="m 145.79644,214.69835 c 20.45026,-2.29213 26.43595,-8.2647 26.39644,-10.87263 -0.0167,-1.10431 -12.8642,3.41613 -11.51363,-2.63215 19.47742,-2.29592 29.30514,-15.61859 33.34853,-28.9388 -4.61029,6.12458 -11.06295,17.73445 -20.94618,12.67796 16.76655,-5.23367 22.19431,-28.31678 26.73394,-38.58507 -10.13799,6.08781 -11.6465,20.70674 -19.84375,22.0486 0.43586,-8.14641 15.70217,-24.03818 6.89018,-53.74348 2.50553,18.92506 -16.50037,27.93537 -17.08766,43.82161 -1.65667,-12.52857 16.5759,-35.89517 1.92924,-50.98741 4.82436,15.24016 -12.33763,26.87897 -13.78038,39.96311 -7.33172,-19.9376 7.16368,-16.94453 -4.40971,-36.10461 2.45926,19.56815 -5.33352,21.4974 -7.99263,41.89237 -5.4325,-9.31188 -9.62961,-5.57227 -7.71701,-17.08768 -9.02325,0.12297 3.98257,38.12869 -1.15932,28.79429 -2.11936,-3.84739 -7.70878,-0.35517 -10.14059,-19.97484 -5.725,12.86169 3.52585,21.03805 1.65364,32.5217 -16.22641,1.34517 -15.76529,-14.00477 -16.95338,-11.53801 -5.92256,12.29657 -2.07996,18.22735 -0.96111,32.75979 22.26627,4.05233 -0.14384,15.87446 -9.09505,25.35592 13.71083,-4.14904 20.41775,-14.4265 44.64843,-9.37067 z"
             id="path14"
             sodipodi:nodetypes="csccccccccccccsccsccc" />
          <path
             style="fill:#ffccaa;stroke:#000000;stroke-width:0.310882px;stroke-linecap:butt;stroke-linejoin:miter;stroke-opacity:1"
             d="m 128.67016,199.57193 -15.5964,-16.15551 5.31784,-6.08884 c 4.87198,4.33428 10.12377,10.04501 14.09348,13.64369 l 19.42521,-41.255 6.99225,2.75193 -14.37432,28.08828 c 8.91969,-5.08768 6.75962,0.69942 6.66967,4.45473 8.06546,-3.4276 5.73778,2.04261 4.77147,6.3473 l 15.90766,-16.02631 3.11896,4.01714 -31.62924,32.6958 c -9.2353,0.44017 -12.34732,-5.61213 -14.69658,-12.47321 z"
             id="path12"
             sodipodi:nodetypes="ccccccccccccc" />
        </g>
        <g
           id="g16"
           transform="matrix(-1,0,0,1,199.21534,0)">
          <path
             style="fill:#00ffff;stroke:#000000;stroke-width:0.264583px;stroke-linecap:butt;stroke-linejoin:miter;stroke-opacity:1"
             d="m 145.79644,214.69835 c 20.45026,-2.29213 26.43595,-8.2647 26.39644,-10.87263 -0.0167,-1.10431 -12.8642,3.41613 -11.51363,-2.63215 19.47742,-2.29592 29.30514,-15.61859 33.34853,-28.9388 -4.61029,6.12458 -11.06295,17.73445 -20.94618,12.67796 16.76655,-5.23367 22.19431,-28.31678 26.73394,-38.58507 -10.13799,6.08781 -11.6465,20.70674 -19.84375,22.0486 0.43586,-8.14641 15.70217,-24.03818 6.89018,-53.74348 2.50553,18.92506 -16.50037,27.93537 -17.08766,43.82161 -1.65667,-12.52857 16.5759,-35.89517 1.92924,-50.98741 4.82436,15.24016 -12.33763,26.87897 -13.78038,39.96311 -7.33172,-19.9376 7.16368,-16.94453 -4.40971,-36.10461 2.45926,19.56815 -5.33352,21.4974 -7.99263,41.89237 -5.4325,-9.31188 -9.62961,-5.57227 -7.71701,-17.08768 -9.02325,0.12297 3.98257,38.12869 -1.15932,28.79429 -2.11936,-3.84739 -7.70878,-0.35517 -10.14059,-19.97484 -5.725,12.86169 3.52585,21.03805 1.65364,32.5217 -16.22641,1.34517 -15.76529,-14.00477 -16.95338,-11.53801 -5.92256,12.29657 -2.07996,18.22735 -0.96111,32.75979 22.26627,4.05233 -0.14384,15.87446 -9.09505,25.35592 13.71083,-4.14904 20.41775,-14.4265 44.64843,-9.37067 z"
             id="path15"
             sodipodi:nodetypes="csccccccccccccsccsccc" />
          <path
             style="fill:#ffccaa;stroke:#000000;stroke-width:0.310882px;stroke-linecap:butt;stroke-linejoin:miter;stroke-opacity:1"
             d="m 128.67016,199.57193 -15.5964,-16.15551 5.31784,-6.08884 c 4.87198,4.33428 10.12377,10.04501 14.09348,13.64369 l 19.42521,-41.255 6.99225,2.75193 -14.37432,28.08828 c 8.91969,-5.08768 6.75962,0.69942 6.66967,4.45473 8.06546,-3.4276 5.73778,2.04261 4.77147,6.3473 l 15.90766,-16.02631 3.11896,4.01714 -31.62924,32.6958 c -9.2353,0.44017 -12.34732,-5.61213 -14.69658,-12.47321 z"
             id="path16"
             sodipodi:nodetypes="ccccccccccccc" />
        </g>
      </g>
    </g>
  </g>
</svg>
